<?xml version="1.0" standalone="yes"?>

<svg version="1.1" viewBox="0.0 0.0 873.9081364829397 258.03412073490813" fill="none" stroke="none" stroke-linecap="square" stroke-miterlimit="10" xmlns="http://www.w3.org/2000/svg" xmlns:xlink="http://www.w3.org/1999/xlink"><clipPath id="p.0"><path d="m0 0l873.90814 0l0 258.03412l-873.90814 0l0 -258.03412z" clip-rule="nonzero"></path></clipPath><g clip-path="url(#p.0)"><path fill="#000000" fill-opacity="0.0" d="m0 0l873.90814 0l0 258.03412l-873.90814 0z" fill-rule="evenodd"></path><path fill="#000000" fill-opacity="0.0" d="m0 47.430447l605.03937 0l0 177.70079l-605.03937 0z" fill-rule="evenodd"></path><path fill="#000000" d="m36.90625 84.24919l-1.125 0q-8.296875 0 -12.921875 4.15625q-4.625 4.140625 -4.625 14.6875q0 3.453125 0.65625 4.8125q0.65625 1.359375 0.65625 1.546875q-5.046875 0 -7.515625 -2.09375q-2.46875 -2.109375 -2.46875 -6.96875q0 -6.625 3.265625 -12.078125q3.265625 -5.46875 10.40625 -8.828125q7.140625 -3.359375 18.15625 -3.359375q6.15625 0 13.25 1.125q5.96875 1.03125 10.640625 1.03125q5.96875 0 10.828125 -1.96875q-0.1875 6.0625 -3.09375 8.96875q-2.890625 2.890625 -8.578125 2.890625q-2.984375 0 -5.96875 -0.46875q-2.984375 -0.46875 -8.5 -1.59375l-12.875 59.921875l-13.4375 0l13.25 -61.78125zm23.328384 15.109375l13.4375 0l-1.203125 5.796875q3.171875 -2.796875 5.734375 -4.296875q2.5625 -1.5 5.546875 -1.5q2.984375 0 4.703125 2.0625q1.734375 2.046875 1.734375 4.9375q0 2.71875 -1.765625 4.78125q-1.765625 2.046875 -4.953125 2.046875q-2.046875 0 -2.75 -0.984375q-0.703125 -0.984375 -1.0625 -2.84375q-0.28125 -1.21875 -0.5625 -1.78125q-0.28125 -0.5625 -1.03125 -0.5625q-1.953125 0 -3.3125 0.796875q-1.359375 0.796875 -3.5 2.75l-7.46875 35.46875l-13.4375 0l9.890625 -46.671875zm39.95079 47.234375q-5.328125 0 -8.875 -3.640625q-3.546875 -3.640625 -3.546875 -11.390625q0 -6.90625 2.75 -14.5q2.765625 -7.609375 8.21875 -12.875q5.46875 -5.28125 13.015625 -5.28125q3.828125 0 5.6875 1.3125q1.875 1.296875 1.875 3.4375l0 0.65625l1.03125 -4.953125l13.4375 0l-6.71875 31.734375q-0.375 1.40625 -0.375 2.984375q0 4.015625 3.828125 4.015625q2.609375 0 4.515625 -2.421875q1.921875 -2.421875 3.046875 -6.34375l3.921875 0q-3.453125 10.078125 -8.546875 13.671875q-5.078125 3.59375 -10.21875 3.59375q-3.921875 0 -6.296875 -2.1875q-2.375 -2.203125 -2.84375 -6.40625q-2.703125 3.828125 -6.03125 6.21875q-3.3125 2.375 -7.875 2.375zm6.0625 -9.0625q2.328125 0 4.609375 -2.1875q2.296875 -2.1875 3.140625 -6.015625l4.46875 -21.09375q0 -1.21875 -0.9375 -2.375q-0.921875 -1.171875 -2.875 -1.171875q-3.734375 0 -6.734375 4.34375q-2.984375 4.328125 -4.671875 10.453125q-1.671875 6.109375 -1.671875 10.78125q0 4.65625 1.359375 5.96875q1.359375 1.296875 3.3125 1.296875zm47.403152 -43.203125q-3.078125 0 -5.21875 -2.140625q-2.140625 -2.15625 -2.140625 -5.234375q0 -3.078125 2.140625 -5.265625q2.140625 -2.203125 5.21875 -2.203125q3.09375 0 5.28125 2.203125q2.1875 2.1875 2.1875 5.265625q0 3.078125 -2.1875 5.234375q-2.1875 2.140625 -5.28125 2.140625zm-6.34375 52.265625q-4.46875 0 -7.234375 -2.796875q-2.75 -2.8125 -2.75 -8.40625q0 -2.328125 0.75 -6.0625l6.34375 -29.96875l13.4375 0l-6.71875 31.734375q-0.375 1.40625 -0.375 2.984375q0 1.875 0.890625 2.671875q0.890625 0.78125 2.9375 0.78125q2.703125 0 5.03125 -2.28125q2.34375 -2.28125 3.375 -5.921875l3.921875 0q-3.453125 10.078125 -8.875 13.671875q-5.40625 3.59375 -10.734375 3.59375zm49.371765 0q-5.6875 0 -8.359375 -3.03125q-2.65625 -3.03125 -2.65625 -7.515625q0 -1.96875 0.46875 -4.4375q0.46875 -2.46875 0.984375 -4.796875q0.515625 -2.34375 0.703125 -3.0q0.75 -3.265625 1.390625 -6.4375q0.65625 -3.171875 0.65625 -5.125q0 -4.765625 -3.359375 -4.765625q-2.421875 0 -4.296875 2.390625q-1.859375 2.375 -2.984375 6.203125l-6.34375 29.953125l-13.4375 0l9.890625 -46.671875l13.4375 0l-1.015625 4.859375q4.65625 -5.21875 10.90625 -5.21875q4.765625 0 7.5625 2.609375q2.796875 2.609375 2.796875 7.9375q0 2.703125 -0.65625 6.015625q-0.640625 3.3125 -1.859375 8.0625q-0.75 2.90625 -1.359375 5.65625q-0.59375 2.75 -0.59375 4.34375q0 1.859375 0.828125 2.890625q0.84375 1.015625 2.90625 1.015625q2.796875 0 4.46875 -2.0q1.6875 -2.0 3.359375 -6.203125l3.921875 0q-3.453125 10.265625 -7.984375 13.765625q-4.515625 3.5 -9.375 3.5zm56.554855 1.125q-5.875 0 -10.359375 -2.046875q-4.46875 -2.0625 -6.90625 -5.75q-2.421875 -3.6875 -2.421875 -8.546875q0 -4.109375 1.71875 -7.46875q1.734375 -3.359375 4.671875 -5.3125q2.9375 -1.953125 6.484375 -1.953125q3.265625 0 5.5 1.640625q2.25 1.625 2.8125 4.515625q-4.859375 0 -7.75 2.5625q-2.890625 2.5625 -2.890625 6.953125q0 4.015625 2.421875 6.4375q2.4375 2.421875 6.4375 2.421875q4.953125 0 8.171875 -3.3125q3.21875 -3.3125 3.21875 -8.34375q0 -4.390625 -2.421875 -8.3125q-2.421875 -3.921875 -7.28125 -9.515625q-5.046875 -5.78125 -7.609375 -9.9375q-2.5625 -4.15625 -2.5625 -9.109375q0 -4.84375 2.703125 -8.71875q2.703125 -3.875 7.46875 -6.109375q4.765625 -2.25 10.734375 -2.25q7.5625 0 12.078125 3.546875q4.53125 3.546875 4.53125 9.53125q0 3.90625 -1.96875 6.34375q-1.953125 2.421875 -5.125 2.421875q-3.546875 0 -5.6875 -2.890625q1.765625 -1.3125 2.796875 -3.453125q1.03125 -2.140625 1.03125 -4.484375q0 -2.984375 -1.78125 -4.75q-1.765625 -1.78125 -4.84375 -1.78125q-3.734375 0 -6.125 2.671875q-2.375 2.65625 -2.375 6.75q0 3.734375 2.140625 6.953125q2.15625 3.21875 6.71875 8.265625q3.734375 4.015625 6.015625 6.90625q2.296875 2.890625 3.921875 6.671875q1.640625 3.78125 1.640625 8.171875q0 5.96875 -3.3125 10.828125q-3.3125 4.84375 -9.0625 7.65625q-5.734375 2.796875 -12.734375 2.796875zm43.681458 -1.125q-6.90625 0 -10.734375 -3.59375q-3.828125 -3.59375 -3.828125 -11.25q0 -6.4375 2.5625 -14.1875q2.578125 -7.75 8.21875 -13.390625q5.65625 -5.640625 14.328125 -5.640625q5.59375 0 7.96875 2.421875q2.390625 2.421875 2.390625 6.15625q0 3.265625 -1.40625 5.046875q-1.390625 1.765625 -3.53125 1.765625q-1.59375 0 -3.28125 -1.109375q1.125 -3.078125 1.125 -5.515625q0 -1.765625 -0.65625 -2.796875q-0.640625 -1.03125 -1.953125 -1.03125q-2.796875 0 -5.609375 4.578125q-2.796875 4.578125 -4.578125 11.109375q-1.765625 6.53125 -1.765625 11.75q0 4.578125 1.578125 6.21875q1.59375 1.625 5.140625 1.625q5.046875 0 8.640625 -2.328125q3.59375 -2.34375 7.890625 -7.09375l3.171875 0q-10.359375 17.265625 -25.671875 17.265625zm56.181793 0q-5.6875 0 -8.359375 -3.03125q-2.65625 -3.03125 -2.65625 -7.515625q0 -1.96875 0.46875 -4.4375q0.46875 -2.46875 0.984375 -4.796875q0.515625 -2.34375 0.703125 -3.0q0.75 -3.265625 1.390625 -6.4375q0.65625 -3.171875 0.65625 -5.125q0 -4.765625 -3.359375 -4.765625q-2.421875 0 -4.296875 2.390625q-1.859375 2.375 -2.984375 6.203125l-6.34375 29.953125l-13.4375 0l13.53125 -63.46875l13.8125 -1.859375l-5.03125 23.515625q4.65625 -5.21875 10.90625 -5.21875q4.765625 0 7.5625 2.609375q2.796875 2.609375 2.796875 7.9375q0 2.703125 -0.65625 6.015625q-0.640625 3.3125 -1.859375 8.0625q-0.75 2.90625 -1.359375 5.65625q-0.59375 2.75 -0.59375 4.34375q0 1.859375 0.828125 2.890625q0.84375 1.015625 2.90625 1.015625q2.796875 0 4.46875 -2.0q1.6875 -2.0 3.359375 -6.203125l3.921875 0q-3.453125 10.265625 -7.984375 13.765625q-4.515625 3.5 -9.375 3.5zm26.787018 0q-6.90625 0 -10.734375 -3.59375q-3.828125 -3.59375 -3.828125 -11.25q0 -6.4375 2.515625 -14.1875q2.53125 -7.75 8.21875 -13.390625q5.703125 -5.640625 14.46875 -5.640625q10.265625 0 10.265625 8.953125q0 5.234375 -2.984375 9.625q-2.984375 4.375 -7.9375 7.046875q-4.9375 2.65625 -10.546875 3.015625q-0.1875 2.8125 -0.1875 3.734375q0 4.578125 1.578125 6.21875q1.59375 1.625 5.140625 1.625q5.046875 0 8.640625 -2.328125q3.59375 -2.34375 7.890625 -7.09375l3.171875 0q-10.359375 17.265625 -25.671875 17.265625zm0.1875 -23.890625q3.453125 -0.1875 6.578125 -2.421875q3.125 -2.25 5.03125 -5.703125q1.921875 -3.453125 1.921875 -7.28125q0 -3.828125 -2.328125 -3.828125q-3.359375 0 -6.578125 5.890625q-3.21875 5.875 -4.625 13.34375zm33.50992 23.890625q-5.328125 0 -8.875 -3.640625q-3.546875 -3.640625 -3.546875 -11.390625q0 -6.90625 2.75 -14.5q2.765625 -7.609375 8.21875 -12.875q5.46875 -5.28125 13.015625 -5.28125q3.828125 0 5.6875 1.3125q1.875 1.296875 1.875 3.4375l0 0.375l4.578125 -21.46875l13.8125 -1.859375l-10.734375 50.390625q-0.375 1.40625 -0.375 2.984375q0 1.875 0.890625 2.671875q0.890625 0.78125 2.9375 0.78125q2.609375 0 4.515625 -2.234375q1.921875 -2.234375 3.046875 -5.96875l3.921875 0q-5.703125 16.703125 -18.765625 16.703125q-3.828125 0 -6.203125 -2.046875q-2.375 -2.0625 -2.9375 -5.984375q-2.4375 3.734375 -5.84375 6.171875q-3.40625 2.421875 -7.96875 2.421875zm6.0625 -9.0625q2.234375 0 4.515625 -2.046875q2.296875 -2.046875 3.140625 -5.6875l0 -0.46875l4.5625 -21.375q-0.828125 -3.265625 -3.8125 -3.265625q-3.734375 0 -6.734375 4.34375q-2.984375 4.328125 -4.671875 10.453125q-1.671875 6.109375 -1.671875 10.78125q0 4.65625 1.359375 5.96875q1.359375 1.296875 3.3125 1.296875zm40.966095 9.0625q-4.46875 0 -7.234375 -2.796875q-2.75 -2.8125 -2.75 -8.40625q0 -2.328125 0.75 -6.0625l6.34375 -29.96875l13.4375 0l-6.71875 31.734375q-0.28125 1.40625 -0.28125 2.625q0 3.8125 2.796875 3.8125q2.625 0 4.484375 -2.1875q1.875 -2.1875 2.984375 -6.015625l6.34375 -29.96875l13.453125 0l-6.71875 31.734375q-0.375 1.40625 -0.375 2.984375q0 1.875 0.875 2.671875q0.890625 0.78125 2.953125 0.78125q2.609375 0 4.515625 -2.234375q1.921875 -2.234375 3.03125 -5.96875l3.921875 0q-3.453125 10.078125 -8.546875 13.671875q-5.078125 3.59375 -10.203125 3.59375q-4.015625 0 -6.40625 -2.234375q-2.375 -2.25 -2.84375 -6.640625q-3.171875 5.140625 -6.671875 7.015625q-3.5 1.859375 -7.140625 1.859375zm47.130737 0q-4.46875 0 -7.234375 -2.796875q-2.75 -2.8125 -2.75 -8.40625q0 -2.328125 0.75 -6.0625l9.984375 -46.765625l13.8125 -1.859375l-10.734375 50.390625q-0.375 1.40625 -0.375 2.984375q0 1.875 0.890625 2.671875q0.890625 0.78125 2.9375 0.78125q2.703125 0 5.03125 -2.28125q2.34375 -2.28125 3.375 -5.921875l3.921875 0q-3.453125 10.078125 -8.875 13.671875q-5.40625 3.59375 -10.734375 3.59375zm29.028015 0q-6.90625 0 -10.734375 -3.59375q-3.828125 -3.59375 -3.828125 -11.25q0 -6.4375 2.515625 -14.1875q2.53125 -7.75 8.21875 -13.390625q5.703125 -5.640625 14.46875 -5.640625q10.265625 0 10.265625 8.953125q0 5.234375 -2.984375 9.625q-2.984375 4.375 -7.9375 7.046875q-4.9375 2.65625 -10.546875 3.015625q-0.1875 2.8125 -0.1875 3.734375q0 4.578125 1.578125 6.21875q1.59375 1.625 5.140625 1.625q5.046875 0 8.640625 -2.328125q3.59375 -2.34375 7.890625 -7.09375l3.171875 0q-10.359375 17.265625 -25.671875 17.265625zm0.1875 -23.890625q3.453125 -0.1875 6.578125 -2.421875q3.125 -2.25 5.03125 -5.703125q1.921875 -3.453125 1.921875 -7.28125q0 -3.828125 -2.328125 -3.828125q-3.359375 0 -6.578125 5.890625q-3.21875 5.875 -4.625 13.34375zm28.650574 -23.34375l13.4375 0l-1.203125 5.796875q3.171875 -2.796875 5.734375 -4.296875q2.5625 -1.5 5.546875 -1.5q2.984375 0 4.703125 2.0625q1.734375 2.046875 1.734375 4.9375q0 2.71875 -1.765625 4.78125q-1.765625 2.046875 -4.953125 2.046875q-2.046875 0 -2.75 -0.984375q-0.703125 -0.984375 -1.0625 -2.84375q-0.28125 -1.21875 -0.5625 -1.78125q-0.28125 -0.5625 -1.03125 -0.5625q-1.953125 0 -3.3125 0.796875q-1.359375 0.796875 -3.5 2.75l-7.46875 35.46875l-13.4375 0l9.890625 -46.671875z" fill-rule="nonzero"></path><path fill="#ffffff" d="m612.9239 129.05249l0 0c0 -53.91516 51.942017 -97.62204 116.01575 -97.62204l0 0c64.07373 0 116.01575 43.706882 116.01575 97.62204l0 0c0 53.915176 -51.942017 97.622055 -116.01575 97.622055l0 0c-64.07373 0 -116.01575 -43.70688 -116.01575 -97.622055z" fill-rule="evenodd"></path><path stroke="#000000" stroke-width="1.0" stroke-linejoin="round" stroke-linecap="butt" d="m612.9239 129.05249l0 0c0 -53.91516 51.942017 -97.62204 116.01575 -97.62204l0 0c64.07373 0 116.01575 43.706882 116.01575 97.62204l0 0c0 53.915176 -51.942017 97.622055 -116.01575 97.622055l0 0c-64.07373 0 -116.01575 -43.70688 -116.01575 -97.622055z" fill-rule="evenodd"></path><path fill="#000000" fill-opacity="0.0" d="m714.65356 31.430447l55.653503 0l0 33.952755l-55.653503 0z" fill-rule="evenodd"></path><path fill="#000000" d="m727.4817 56.100445l0 -7.34375l-2.1875 1.125l-0.8125 -1.4375l3.390625 -2.109375l1.828125 0l0 10.34375l1.9375 0.09375l0 1.578125l-6.484375 0l0 -1.53125l1.78125 -0.109375q0.28125 -0.015625 0.40625 -0.140625q0.140625 -0.140625 0.140625 -0.46875zm5.7355347 2.25l0 -1.4375l3.71875 -4.6875q0.578125 -0.734375 0.765625 -0.984375q0.1875 -0.265625 0.359375 -0.71875q0.1875 -0.453125 0.1875 -1.09375q0 -0.65625 -0.4375 -1.0625q-0.4375 -0.40625 -1.125 -0.40625q-0.6875 0 -1.03125 0.109375q-0.34375 0.109375 -0.40625 0.25q-0.0625 0.140625 -0.0625 0.4375l0 1.328125l-1.90625 -0.125l0 -2.984375q1.75 -0.875 3.59375 -0.875q1.859375 0 2.78125 0.90625q0.9375 0.890625 0.9375 2.46875q0 1.5625 -1.578125 3.484375l-3.015625 3.546875l4.671875 0l0 1.84375l-7.453125 0z" fill-rule="nonzero"></path><path fill="#000000" fill-opacity="0.0" d="m759.0551 47.430447l46.677185 0l0 33.952755l-46.677185 0z" fill-rule="evenodd"></path><path fill="#000000" d="m771.88324 72.10044l0 -7.34375l-2.1875 1.125l-0.8125 -1.4375l3.390625 -2.1093712l1.828125 0l0 10.343746l1.9375 0.09375l0 1.578125l-6.484375 0l0 -1.53125l1.78125 -0.109375q0.28125 -0.015625 0.40625 -0.140625q0.140625 -0.140625 0.140625 -0.46875z" fill-rule="nonzero"></path><path fill="#000000" fill-opacity="0.0" d="m793.35693 74.30971l55.653564 0l0 33.95276l-55.653564 0z" fill-rule="evenodd"></path><path fill="#000000" d="m803.4507 101.229706l0 -1.4375l3.71875 -4.6875q0.578125 -0.734375 0.765625 -0.984375q0.1875 -0.265625 0.359375 -0.71875q0.1875 -0.453125 0.1875 -1.09375q0 -0.65625 -0.4375 -1.0625q-0.4375 -0.40625 -1.125 -0.40625q-0.6875 0 -1.03125 0.109375q-0.34375 0.109375 -0.40625 0.25q-0.0625 0.140625 -0.0625 0.4375l0 1.328125l-1.90625 -0.125l0 -2.984375q1.75 -0.875 3.59375 -0.875q1.859375 0 2.78125 0.90625q0.9375 0.890625 0.9375 2.46875q0 1.5625 -1.578125 3.484375l-3.015625 3.546875l4.671875 0l0 1.84375l-7.453125 0z" fill-rule="nonzero"></path><path fill="#000000" fill-opacity="0.0" d="m805.7323 112.07612l55.653503 0l0 33.95275l-55.653503 0z" fill-rule="evenodd"></path><path fill="#000000" d="m817.8417 132.04298l1.921875 0q1.125 -0.71875 1.125 -2.0q0 -1.4375 -1.625 -1.4375q-0.59375 0 -1.0 0.140625q-0.390625 0.125 -0.46875 0.265625q-0.0625 0.140625 -0.0625 0.4375l0 1.34375l-1.90625 -0.140625l0 -2.9843674q1.875 -0.921875 3.703125 -0.921875q1.828125 0 2.734375 0.828125q0.90625 0.8281174 0.90625 2.1562424q0 0.96875 -0.46875 1.765625q-0.46875 0.78125 -1.234375 1.265625q1.890625 0.59375 1.890625 2.65625q0 1.71875 -1.0625 2.78125q-1.0625 1.046875 -3.15625 1.046875q-1.03125 0 -2.046875 -0.28125q-1.015625 -0.28125 -1.609375 -0.65625l0.65625 -1.78125q1.46875 0.828125 2.921875 0.828125q2.03125 0 2.03125 -1.8125q0 -0.9375 -0.625 -1.375q-0.609375 -0.4375 -2.078125 -0.4375l-0.703125 0l0.15625 -1.6875z" fill-rule="nonzero"></path><path fill="#000000" fill-opacity="0.0" d="m714.65356 192.72179l55.653503 0l0 33.95276l-55.653503 0z" fill-rule="evenodd"></path><path fill="#000000" d="m731.02856 207.12616l0.421875 1.671875q-3.984375 0.515625 -4.453125 3.953125q1.171875 -0.765625 2.609375 -0.765625q1.453125 0 2.3125 0.984375q0.859375 0.96875 0.859375 2.75q0 1.78125 -1.0625 2.953125q-1.046875 1.171875 -3.078125 1.171875q-2.015625 0 -3.0 -1.453125q-0.984375 -1.453125 -0.984375 -3.90625q0 -6.65625 6.375 -7.359375zm-0.4375 8.578125q0 -2.125 -1.65625 -2.125q-0.484375 0 -1.109375 0.234375q-0.625 0.21875 -0.96875 0.5q0 0.171875 0 0.359375q0 1.484375 0.421875 2.46875q0.4375 0.984375 1.5 0.984375q0.8125 0 1.3125 -0.640625q0.5 -0.640625 0.5 -1.78125z" fill-rule="nonzero"></path><path fill="#000000" fill-opacity="0.0" d="m617.98425 108.26247l46.677185 0l0 29.984253l-46.677185 0z" fill-rule="evenodd"></path><path fill="#000000" d="m629.578 135.40121l-0.453125 -1.734375q2.15625 -0.234375 3.265625 -1.125q1.125 -0.90625 1.328125 -2.46875q-1.078125 0.703125 -2.59375 0.703125q-1.515625 0 -2.359375 -0.96875q-0.84375 -0.96875 -0.84375 -2.734375q0 -1.78125 1.0625 -2.953125q1.0625 -1.1875 3.09375 -1.1875q2.03125 0 2.984375 1.453125q0.953125 1.453125 0.953125 3.890625q0 6.546875 -6.4375 7.125zm2.375 -10.734375q-0.84375 0 -1.359375 0.640625q-0.5 0.625 -0.5 1.6875q0 1.0625 0.421875 1.609375q0.4375 0.546875 1.078125 0.546875q0.65625 0 1.28125 -0.203125q0.625 -0.21875 0.953125 -0.484375q0 -0.171875 0 -0.328125q0 -3.46875 -1.875 -3.46875z" fill-rule="nonzero"></path><path fill="#000000" fill-opacity="0.0" d="m797.4147 154.37007l55.653564 0l0 33.95276l-55.653564 0z" fill-rule="evenodd"></path><path fill="#000000" d="m812.8834 172.66507l1.3125 0l0 3.5l1.65625 0l0 1.765625l-1.671875 0l0 1.6875l1.546875 0.09375l0 1.578125l-5.484375 0l0 -1.53125l1.15625 -0.09375q0.53125 -0.03125 0.53125 -0.515625l0 -1.234375l-4.765625 0l0 -1.546875l3.5 -7.375l1.78125 0.875l-3.015625 6.296875l2.671875 0l0 -1.015625l0.78125 -2.484375z" fill-rule="nonzero"></path><path fill="#000000" fill-opacity="0.0" d="m759.0551 176.72179l55.653564 0l0 33.95276l-55.653564 0z" fill-rule="evenodd"></path><path fill="#000000" d="m776.3051 193.39178l-4.28125 0l-0.375 2.859375q2.09375 0.15625 3.40625 1.09375q1.328125 0.9375 1.328125 2.796875q0 1.5 -1.015625 2.609375q-1.0 1.09375 -3.140625 1.09375q-1.03125 0 -2.03125 -0.28125q-1.0 -0.28125 -1.59375 -0.65625l0.734375 -1.703125q1.46875 0.796875 2.796875 0.796875q1.90625 0 1.90625 -1.828125q0 -2.28125 -4.453125 -2.28125l0.796875 -6.265625l3.71875 0q0.421875 0 0.421875 -0.515625l0 -0.8125l1.78125 0.140625l0 2.953125z" fill-rule="nonzero"></path><path fill="#000000" fill-opacity="0.0" d="m679.8727 183.4462l55.653564 0l0 33.95276l-55.653564 0z" fill-rule="evenodd"></path><path fill="#000000" d="m689.29456 198.35057l8.0625 0l0 1.546875l-4.265625 10.46875l-2.328125 0l4.375 -10.171875l-3.515625 0q-0.421875 0 -0.421875 0.578125l0 0.75l-1.90625 -0.125l0 -3.046875z" fill-rule="nonzero"></path><path fill="#000000" fill-opacity="0.0" d="m634.7008 154.37007l55.653503 0l0 33.95276l-55.653503 0z" fill-rule="evenodd"></path><path fill="#000000" d="m644.5758 178.32132q0 -2.0625 2.28125 -3.390625q-1.890625 -1.15625 -1.890625 -2.78125q0 -1.34375 1.046875 -2.21875q1.046875 -0.890625 2.796875 -0.890625q1.75 0 2.640625 0.8125q0.890625 0.796875 0.890625 1.984375q0 1.484375 -1.78125 2.984375q2.28125 1.3125 2.28125 3.234375q0 1.484375 -1.0625 2.46875q-1.0625 0.96875 -3.1875 0.96875q-2.109375 0 -3.0625 -0.9375q-0.953125 -0.9375 -0.953125 -2.234375zm4.015625 1.46875q0.875 0 1.359375 -0.4375q0.5 -0.453125 0.5 -1.21875q0 -0.765625 -0.53125 -1.265625q-0.515625 -0.515625 -1.53125 -1.046875q-0.78125 0.53125 -1.203125 1.0625q-0.421875 0.53125 -0.421875 1.25q0 0.71875 0.46875 1.1875q0.484375 0.46875 1.359375 0.46875zm1.671875 -7.859375q0 -0.609375 -0.4375 -0.953125q-0.4375 -0.359375 -1.125 -0.359375q-0.671875 0 -1.125 0.40625q-0.4375 0.390625 -0.4375 1.0q0 1.109375 1.765625 2.015625q0.5625 -0.375 0.953125 -0.9375q0.40625 -0.578125 0.40625 -1.171875z" fill-rule="nonzero"></path><path fill="#000000" fill-opacity="0.0" d="m629.57086 74.30971l55.653564 0l0 33.95276l-55.653564 0z" fill-rule="evenodd"></path><path fill="#000000" d="m642.399 98.979706l0 -7.34375l-2.1875 1.125l-0.8125 -1.4375l3.390625 -2.109375l1.828125 0l0 10.34375l1.9375 0.09375l0 1.578125l-6.484375 0l0 -1.53125l1.78125 -0.109375q0.28125 -0.015625 0.40625 -0.140625q0.140625 -0.140625 0.140625 -0.46875zm9.719971 -10.0q4.234375 0 4.234375 6.125q0 3.265625 -1.109375 4.796875q-1.09375 1.515625 -3.265625 1.515625q-2.15625 0 -3.21875 -1.5q-1.0625 -1.5 -1.0625 -4.671875q0 -3.171875 1.171875 -4.71875q1.171875 -1.546875 3.25 -1.546875zm-1.640625 9.6875q0.53125 0.953125 1.53125 0.953125q1.015625 0 1.5625 -0.984375q0.5625 -0.984375 0.5625 -3.4375q0 -2.453125 -0.53125 -3.421875q-0.53125 -0.96875 -1.5625 -0.96875q-1.03125 0 -1.5625 1.03125q-0.53125 1.03125 -0.53125 3.453125q0 2.40625 0.53125 3.375z" fill-rule="nonzero"></path><path fill="#000000" fill-opacity="0.0" d="m660.69293 47.430447l55.653503 0l0 33.952755l-55.653503 0z" fill-rule="evenodd"></path><path fill="#000000" d="m673.52106 72.10044l0 -7.34375l-2.1875 1.125l-0.8125 -1.4375l3.390625 -2.1093712l1.828125 0l0 10.343746l1.9375 0.09375l0 1.578125l-6.484375 0l0 -1.53125l1.78125 -0.109375q0.28125 -0.015625 0.40625 -0.140625q0.140625 -0.140625 0.140625 -0.46875zm8.46991 0l0 -7.34375l-2.1875 1.125l-0.8125 -1.4375l3.390625 -2.1093712l1.828125 0l0 10.343746l1.9375 0.09375l0 1.578125l-6.484375 0l0 -1.53125l1.78125 -0.109375q0.28125 -0.015625 0.40625 -0.140625q0.140625 -0.140625 0.140625 -0.46875z" fill-rule="nonzero"></path><path fill="#000000" fill-opacity="0.0" d="m596.4514 129.05249l0 0c0 -62.06463 59.317017 -112.377945 132.48822 -112.377945l0 0c73.1712 0 132.48816 50.31332 132.48816 112.377945l0 0c0 62.064636 -59.316956 112.37796 -132.48816 112.37796l0 0c-73.1712 0 -132.48822 -50.313324 -132.48822 -112.37796z" fill-rule="evenodd"></path><path stroke="#000000" stroke-width="1.0" stroke-linejoin="round" stroke-linecap="butt" d="m596.4514 129.05249l0 0c0 -62.06463 59.317017 -112.377945 132.48822 -112.377945l0 0c73.1712 0 132.48816 50.31332 132.48816 112.377945l0 0c0 62.064636 -59.316956 112.37796 -132.48816 112.37796l0 0c-73.1712 0 -132.48822 -50.313324 -132.48822 -112.37796z" fill-rule="evenodd"></path><path fill="#000000" fill-opacity="0.0" d="m760.30707 82.7664l-34.078735 45.448822" fill-rule="evenodd"></path><path stroke="#000000" stroke-width="1.0" stroke-linejoin="round" stroke-linecap="butt" d="m760.30707 82.7664l-34.078735 45.448822" fill-rule="evenodd"></path><path fill="#000000" fill-opacity="0.0" d="m728.66144 128.20473l32.472412 -0.81890106" fill-rule="evenodd"></path><path stroke="#000000" stroke-width="1.0" stroke-linejoin="round" stroke-linecap="butt" d="m728.66144 128.20473l32.472412 -0.81890106" fill-rule="evenodd"></path><path fill="#000000" d="m724.50397 127.38845l0 0c0 -1.1219635 0.93066406 -2.0314941 2.0787354 -2.0314941l0 0c0.55126953 0 1.0800171 0.2140274 1.4698486 0.59500885c0.38983154 0.38098145 0.6088867 0.89769745 0.6088867 1.4364853l0 0c0 1.1219711 -0.9307251 2.0315018 -2.0787354 2.0315018l0 0c-1.1480713 0 -2.0787354 -0.90953064 -2.0787354 -2.0315018z" fill-rule="evenodd"></path><path stroke="#000000" stroke-width="1.0" stroke-linejoin="round" stroke-linecap="butt" d="m724.50397 127.38845l0 0c0 -1.1219635 0.93066406 -2.0314941 2.0787354 -2.0314941l0 0c0.55126953 0 1.0800171 0.2140274 1.4698486 0.59500885c0.38983154 0.38098145 0.6088867 0.89769745 0.6088867 1.4364853l0 0c0 1.1219711 -0.9307251 2.0315018 -2.0787354 2.0315018l0 0c-1.1480713 0 -2.0787354 -0.90953064 -2.0787354 -2.0315018z" fill-rule="evenodd"></path></g></svg>

